<?xml version="1.0" standalone="no"?>
<!DOCTYPE svg PUBLIC "-//W3C//DTD SVG 20010904//EN"
 "http://www.w3.org/TR/2001/REC-SVG-20010904/DTD/svg10.dtd">
<svg version="1.0" xmlns="http://www.w3.org/2000/svg"
 width="600.000000pt" height="600.000000pt" viewBox="0 0 600.000000 600.000000"
 preserveAspectRatio="xMidYMid meet">
<metadata>
Created by potrace 1.14, written by Peter Selinger 2001-2017
</metadata>
<g transform="translate(0.000000,600.000000) scale(0.100000,-0.100000)"
fill="#000000" stroke="none">
<path d="M2731 5109 c-248 -30 -521 -148 -776 -334 l-106 -77 -34 26 c-55 42
-68 30 -43 -41 l12 -33 -95 -97 c-52 -54 -112 -119 -133 -145 -21 -27 -46 -48
-55 -48 -9 0 -38 14 -66 30 -56 33 -85 38 -85 14 0 -9 18 -51 39 -94 l39 -76
-29 -50 c-32 -54 -73 -155 -89 -221 -10 -39 -20 -49 -124 -123 -262 -187 -375
-334 -470 -610 -72 -214 -80 -270 -80 -595 -1 -265 1 -298 21 -381 65 -268
170 -451 378 -660 70 -71 160 -148 216 -187 214 -148 500 -262 684 -273 79 -4
77 -3 -105 47 -303 82 -552 227 -770 448 -124 126 -174 193 -247 331 -116 220
-160 498 -134 845 27 377 169 706 377 878 77 64 71 59 139 108 167 119 357
247 379 255 8 3 34 -7 58 -23 23 -15 79 -46 123 -69 69 -37 76 -43 55 -48 -14
-2 -54 -10 -89 -17 -85 -16 -178 -63 -330 -163 -156 -103 -404 -283 -413 -300
-4 -6 -3 -18 2 -25 6 -11 32 -9 141 12 174 34 270 49 277 43 2 -3 -20 -33 -51
-68 -30 -35 -89 -116 -131 -181 -82 -126 -162 -214 -263 -291 -35 -26 -63 -51
-63 -55 0 -5 7 -14 15 -21 19 -16 136 9 213 45 30 14 56 25 58 25 8 0 -48
-137 -78 -190 -17 -30 -75 -126 -129 -214 -101 -162 -115 -196 -79 -196 25 0
146 60 220 109 30 20 61 41 69 45 12 8 13 0 8 -45 -12 -96 -50 -193 -145 -362
-49 -89 -53 -100 -39 -114 20 -20 93 -28 140 -15 20 6 37 8 37 5 0 -3 -9 -21
-21 -39 -42 -68 9 -73 107 -9 l69 44 8 -25 c5 -15 4 -37 -2 -56 -30 -85 -5
-201 76 -360 75 -146 185 -230 346 -265 43 -9 98 -13 136 -10 62 5 64 4 129
-41 36 -26 60 -48 52 -50 -7 -3 27 -15 77 -27 51 -13 136 -46 198 -78 61 -30
135 -62 165 -70 65 -19 222 -47 259 -47 46 1 2 16 -84 29 -119 19 -212 53
-395 147 -203 104 -322 183 -376 250 -76 94 -235 518 -274 729 -29 157 -27
338 6 499 10 48 20 12 22 -81 4 -136 46 -371 72 -396 17 -18 40 19 40 64 0 66
41 282 76 396 83 274 236 594 420 880 30 47 57 83 59 81 3 -3 -4 -45 -14 -94
-27 -122 -49 -318 -57 -505 l-7 -157 -54 24 c-65 29 -73 30 -73 4 0 -16 16
-28 65 -50 46 -21 68 -37 75 -55 10 -26 35 -34 42 -13 3 9 64 -15 185 -71 100
-46 186 -80 193 -76 29 18 -6 42 -170 117 -96 44 -179 84 -184 88 -23 23 87
423 177 649 26 63 74 161 108 217 65 108 166 245 186 251 15 5 123 -158 180
-271 25 -50 61 -134 80 -186 40 -111 134 -431 158 -542 17 -76 37 -110 55 -92
16 16 31 127 37 264 7 161 -12 337 -56 515 -16 66 -28 121 -26 123 13 13 175
-228 238 -354 85 -171 225 -560 208 -577 -9 -9 -82 -42 -251 -114 -47 -20 -91
-41 -97 -46 -19 -14 -16 -37 5 -37 14 0 183 71 479 200 22 10 44 16 47 13 3
-4 6 -26 6 -49 0 -47 14 -64 35 -43 42 44 92 315 79 434 -8 78 4 66 49 -51 66
-169 137 -493 162 -738 7 -68 7 -68 35 -63 l27 6 18 -168 c14 -139 15 -178 5
-227 -46 -220 -142 -397 -305 -559 -131 -131 -277 -218 -465 -279 -167 -55
-253 -68 -490 -75 l-215 -6 130 -9 c277 -19 492 12 705 101 52 22 140 51 195
66 55 14 127 33 160 41 206 54 447 136 547 187 93 47 212 132 294 211 241 231
408 515 490 833 26 101 29 125 29 295 0 140 -4 205 -18 267 -75 351 -304 700
-600 918 -90 66 -96 73 -112 125 -68 228 -177 434 -322 609 -186 222 -482 434
-713 510 -142 46 -202 53 -505 56 -159 2 -323 -1 -364 -6z m701 -53 c158 -29
305 -89 438 -178 288 -193 464 -381 601 -643 45 -87 119 -267 119 -291 0 -11
-25 -1 -63 25 -59 40 -191 118 -262 153 -85 43 -84 41 -74 93 16 84 -7 97 -61
34 l-35 -40 -210 59 c-116 33 -225 63 -244 67 -20 4 -45 20 -60 38 -81 96
-410 377 -442 377 -24 0 -16 -32 22 -97 39 -69 99 -221 99 -254 0 -14 -34 -17
-297 -22 -164 -4 -326 -11 -361 -16 -54 -8 -75 -6 -153 15 -175 47 -414 165
-524 259 l-40 34 30 25 c65 55 255 177 351 224 168 84 331 131 544 156 81 10
547 -4 622 -18z m-1570 -569 c28 -56 70 -133 95 -171 24 -37 43 -69 41 -71 -2
-1 -32 -14 -67 -28 l-64 -26 -149 66 c-81 36 -151 69 -154 75 -8 12 32 63 138
174 50 51 94 91 99 88 5 -3 33 -51 61 -107z m1406 -174 c13 -25 21 -133 10
-139 -5 -3 -21 2 -36 12 -90 61 -233 112 -342 122 -72 6 -73 7 -30 13 25 3
122 7 217 7 155 2 173 0 181 -15z m715 -128 c51 -15 56 -19 45 -33 -37 -44
-263 -163 -278 -145 -4 4 -13 34 -19 67 -7 32 -26 89 -42 127 -16 37 -29 70
-29 72 0 4 142 -35 323 -88z m-1894 -54 c-17 -5 -129 31 -123 40 3 5 19 13 37
17 28 8 36 6 65 -22 18 -17 28 -32 21 -35z m-549 -39 c0 -4 -24 -22 -52 -40
-29 -18 -70 -44 -92 -58 l-39 -26 7 29 c4 15 25 66 47 113 l40 84 45 -47 c24
-26 44 -50 44 -55z m2707 -19 c164 -88 449 -274 562 -366 186 -153 365 -418
446 -660 136 -408 65 -822 -211 -1232 -176 -262 -391 -446 -626 -535 l-53 -20
30 22 c70 51 127 125 186 243 33 66 63 138 66 161 7 55 -23 121 -75 164 l-40
34 32 43 c17 23 35 42 39 43 4 0 20 -9 35 -19 39 -28 95 -37 111 -17 11 13 9
26 -12 79 -39 97 -51 175 -44 290 6 103 14 147 26 147 4 0 58 -58 121 -130
110 -125 143 -149 156 -116 3 8 -10 50 -29 93 -88 197 -177 401 -177 406 0 3
17 -1 37 -9 51 -22 134 -34 156 -23 28 16 20 37 -25 65 -83 51 -108 92 -133
214 -36 181 -109 327 -207 415 -31 27 -45 46 -37 48 8 2 64 16 124 31 61 15
117 34 125 42 13 14 13 17 -7 33 -12 10 -39 22 -60 25 -78 14 -254 110 -343
188 -154 134 -203 165 -297 188 -45 11 -52 20 -29 39 7 6 28 42 45 81 18 38
34 70 36 70 2 0 34 -17 72 -37z m-413 -1133 c13 -41 27 -94 31 -118 l7 -42
-44 -20 c-23 -11 -47 -20 -53 -20 -6 0 -10 66 -10 180 l0 179 22 -42 c12 -23
33 -76 47 -117z m-2218 -1014 c18 -13 51 -92 42 -102 -2 -2 -21 2 -41 8 -46
14 -108 -2 -144 -38 -41 -41 -4 -62 44 -24 40 31 93 26 139 -12 33 -27 47 -52
87 -157 66 -174 64 -161 33 -161 -42 0 -90 25 -118 60 -26 34 -48 34 -48 0 0
-45 138 -122 190 -105 14 4 29 -10 64 -60 54 -78 51 -81 -60 -66 -200 28 -329
153 -409 399 -36 111 -5 215 77 255 41 20 117 22 144 3z m2889 -88 c65 -34
101 -98 90 -157 -9 -47 -84 -195 -131 -257 -52 -68 -89 -98 -169 -135 -54 -26
-84 -33 -156 -37 -49 -2 -89 -2 -89 2 0 4 17 27 37 51 l36 44 61 -5 c51 -4 67
-1 101 18 24 14 41 32 43 46 4 28 -6 28 -65 -3 -32 -18 -56 -24 -73 -20 -34 9
-35 10 -12 42 29 41 92 170 112 228 26 78 92 96 191 54 39 -17 53 -19 62 -10
9 9 6 16 -13 32 -37 28 -90 42 -148 38 -48 -4 -52 -2 -52 18 0 43 18 71 47 75
39 4 92 -6 128 -24z m-318 -651 c-76 -25 -300 -88 -304 -84 -1 2 24 26 58 53
l60 49 119 0 119 0 -52 -18z"/>
<path d="M3163 4993 c-7 -2 -13 -13 -13 -24 0 -16 7 -19 52 -19 28 0 80 -5
116 -11 47 -8 67 -8 75 0 19 19 -13 39 -83 50 -68 11 -126 13 -147 4z"/>
<path d="M3470 4911 c0 -15 16 -24 73 -41 188 -57 375 -179 522 -342 69 -76
87 -89 100 -67 18 29 -173 226 -301 309 -122 80 -307 160 -369 160 -18 0 -25
-5 -25 -19z"/>
<path d="M2200 2546 c-119 -33 -230 -125 -292 -241 -26 -50 -33 -74 -36 -142
-4 -75 -2 -87 26 -146 52 -112 136 -187 253 -228 80 -27 260 -31 352 -6 161
43 256 162 265 333 11 210 -105 362 -327 430 -56 17 -180 17 -241 0z m271 -55
c117 -44 211 -136 241 -234 21 -67 16 -203 -9 -258 -31 -70 -85 -122 -155
-154 -53 -24 -79 -29 -179 -33 -183 -7 -277 24 -369 125 -125 137 -117 313 20
450 54 54 143 107 206 123 59 14 181 5 245 -19z"/>
<path d="M2296 2311 c-16 -11 -35 -30 -42 -43 -18 -31 -17 -93 1 -127 15 -30
69 -61 105 -61 37 0 90 31 106 63 60 115 -65 237 -170 168z"/>
<path d="M3616 2549 c-66 -16 -162 -67 -213 -113 -161 -145 -173 -413 -26
-559 77 -78 167 -107 333 -107 181 0 259 30 358 134 76 80 106 151 106 247 0
63 -5 86 -32 143 -42 91 -126 172 -228 222 -69 35 -85 38 -168 41 -50 1 -108
-2 -130 -8z m280 -69 c94 -45 183 -134 214 -215 63 -165 -15 -336 -190 -419
-63 -30 -69 -31 -210 -31 -127 1 -152 3 -202 23 -120 48 -191 160 -190 302 0
141 68 253 193 320 90 48 142 60 235 56 66 -3 94 -10 150 -36z"/>
<path d="M3619 2307 c-47 -31 -67 -93 -47 -145 33 -88 141 -108 205 -38 98
107 -37 264 -158 183z"/>
<path d="M2928 1891 c-38 -35 -42 -43 -45 -97 -4 -65 6 -90 32 -80 14 5 16 14
11 41 -9 45 13 96 53 124 17 12 31 29 31 37 0 26 -40 14 -82 -25z"/>
<path d="M2061 1656 c-23 -28 5 -175 54 -281 63 -139 162 -230 340 -316 280
-136 600 -154 920 -54 243 76 405 193 512 371 59 98 110 256 93 284 -6 11 -61
6 -267 -23 -441 -63 -651 -76 -948 -58 -237 15 -535 53 -671 87 -12 3 -26 -1
-33 -10z m209 -65 c283 -46 403 -55 720 -55 314 1 412 9 857 76 45 6 85 10 88
7 6 -6 -30 -121 -51 -160 -17 -34 -138 -93 -246 -119 -46 -11 -130 -23 -188
-27 -111 -6 -139 -15 -119 -40 22 -26 261 4 392 49 49 16 91 27 94 24 11 -10
-151 -160 -209 -194 -392 -232 -928 -221 -1274 24 -60 42 -152 140 -141 150 3
3 36 -4 74 -15 175 -52 508 -85 508 -51 0 12 -27 18 -130 27 -159 16 -313 45
-419 81 l-80 27 -18 55 c-10 30 -21 82 -25 114 -6 58 -6 59 18 53 13 -3 80
-15 149 -26z"/>
</g>
</svg>
